<svg xmlns="http://www.w3.org/2000/svg" viewBox="0 0 240 240">
  <g transform="translate(0, 50)">
    <!-- Left dark blue wing/pillar -->
    <path d="M 10 135 L 75 14 C 77 10 84 10 86 14 L 105 45 C 107 50 105 55 100 57 L 55 76 L 30 135 Z" fill="#141f72"/>
    
    <!-- Bright blue bottom swoop -->
    <path d="M 36 135 C 60 110 90 90 142 66 C 122 84 110 105 108 135 Z" fill="#008ce3"/>
    
    <!-- Bright blue top swooshing stream -->
    <path d="M 50 115 C 95 95 145 75 195 62 L 210 57 C 180 62 135 72 90 90 Z" fill="#008ce3"/>
    
    <!-- Airplane Silhouette -->
    <path d="M 188 56 L 194 48 L 198 49 L 197 56 L 206 55 L 213 43 L 217 44 L 212 55 L 228 52 C 232 51 236 53 237 56 C 237 57 235 59 231 60 L 212 61 L 205 70 L 201 69 L 203 60 L 194 61 L 188 56 Z" fill="#008ce3"/>
  </g>
</svg>
